<svg version="1.2" xmlns="http://www.w3.org/2000/svg" viewBox="0 0 260 227" width="260" height="227"><style>.a{fill:#566493}</style><path fill-rule="evenodd" class="a" d="m118 181.1c-4.1-1.8-9.5-1.8-14.3-2.4-17.5-2.1-34.1-10.3-49.1-20.1-15.5-10.2-30.4-33.8-34.8-43.7-6.5-0.3-13.1-0.3-19.8-0.8 5-4.5 12.7-5.3 19.3-5.8 0-6.6 3.4-11.6 9.9-14.6 6.6-3.1 15.6 0.3 19 2.8 5.1 3.3 26.1 13.6 32.1 15 7.6-14.3 16-29.3 29.1-38.7 8.4-6 17.6-10.9 26.8-15.5 22.4-10.9 47.6-23.4 110.2-57.3-19.5 31.2-33.3 45.8-40.6 54.9-13.5 17.1-34.9 29-55.9 34.7 9.2 1.3 30.3-5.9 37.5-10.6-5.1 15-27 24.2-44.2 29.5 8.1 0.9 15.7-1.4 23.2-5.1-3.4 10.1-16.4 17.4-28.6 20.9 8.5 10.4 34.4 23.7 47.8 22.4-5.6 2.2-13.4 4.8-20.5 4.3 12.1 5.4 81.6 26.4 94.3 30.3-32.2-2.7-71.8-6-104.9-9.2 17.4 20.4 41.7 50.7 44.8 54.3-39.2-21.8-60.7-33.9-81.3-45.3zm-84.6-71.3c1.3 0 2.3-1.1 2.3-2.4 0-1.2-1-2.3-2.3-2.3-1.3 0-2.3 1.1-2.3 2.3 0 1.3 1.1 2.4 2.3 2.4z"/></svg>